<?xml version="1.0" standalone="no"?>
<!DOCTYPE svg PUBLIC "-//W3C//DTD SVG 20010904//EN"
 "http://www.w3.org/TR/2001/REC-SVG-20010904/DTD/svg10.dtd">
<svg version="1.0" xmlns="http://www.w3.org/2000/svg"
 width="300.000000pt" height="254.000000pt" viewBox="0 0 300.000000 254.000000"
 preserveAspectRatio="xMidYMid meet">
<metadata>
Created by potrace 1.10, written by Peter Selinger 2001-2011
</metadata>
<g transform="translate(0.000000,254.000000) scale(0.100000,-0.100000)"
fill="#000000" stroke="none">
<path d="M677 2461 c-105 -57 -151 -101 -191 -182 -20 -40 -34 -74 -32 -77 3
-2 40 22 82 54 76 58 248 245 222 243 -7 -1 -44 -18 -81 -38z m-43 -83 c-52
-58 -71 -76 -92 -87 -23 -12 -23 -12 -12 11 18 34 82 94 104 95 18 2 18 1 0
-19z"/>
<path d="M1176 2481 c-9 -10 -41 -26 -70 -35 -68 -22 -90 -37 -110 -81 -12
-26 -15 -48 -11 -80 5 -32 3 -50 -9 -67 -22 -30 -20 -76 4 -123 26 -52 24
-106 -6 -153 -1 -2 -12 6 -24 18 -26 26 -125 72 -201 94 -58 16 -76 13 -139
-23 -8 -5 -27 -14 -42 -21 -33 -16 -58 -74 -58 -135 0 -24 -4 -55 -10 -69 -7
-20 -5 -38 10 -76 11 -27 24 -80 30 -117 6 -37 20 -87 31 -112 10 -24 19 -62
19 -85 0 -47 15 -93 48 -151 25 -44 82 -80 144 -91 34 -6 37 -8 26 -27 -6 -11
-12 -73 -14 -136 l-3 -116 46 -95 c75 -151 113 -206 182 -256 34 -24 74 -49
88 -55 14 -5 83 -9 152 -8 70 0 147 -5 173 -11 28 -7 90 -11 150 -8 125 4 159
19 273 116 44 38 96 74 116 81 46 15 82 65 115 161 32 91 34 130 9 192 -5 13
-2 15 13 11 31 -8 87 12 173 63 84 50 117 82 149 145 22 42 26 119 9 151 -6
12 -13 43 -15 71 -2 27 -10 57 -19 66 -9 10 -15 36 -15 62 0 63 -28 107 -101
160 -71 50 -145 80 -184 73 -21 -4 -25 -1 -25 20 0 13 6 41 14 63 8 23 10 45
5 54 -13 24 -36 100 -43 141 -4 21 -32 87 -62 148 -47 94 -60 113 -92 129 -43
22 -135 41 -198 41 -77 0 -132 -74 -153 -206 -15 -99 6 -84 33 22 21 82 49
128 91 148 31 15 38 15 71 1 20 -8 48 -15 63 -15 40 0 102 -20 96 -31 -4 -5 1
-9 10 -9 12 0 15 -5 11 -17 -4 -10 -4 -14 0 -10 7 6 34 -43 33 -60 -1 -3 5 -9
12 -13 9 -6 9 -11 -3 -23 -13 -13 -16 -10 -27 29 -20 68 -65 110 -131 122 -31
6 -60 11 -65 12 -37 8 -70 -3 -96 -31 -29 -31 -33 -48 -14 -61 6 -4 1 -15 -12
-27 -17 -16 -22 -32 -22 -76 0 -36 5 -57 14 -63 12 -6 11 -15 -8 -52 -22 -46
-31 -50 -79 -36 -23 7 -28 14 -28 38 0 16 -7 36 -15 45 -14 14 -14 17 0 32 17
19 21 56 5 46 -5 -3 -10 2 -10 13 0 26 -37 71 -66 82 -13 5 -24 18 -24 27 0
18 -70 124 -70 107 0 -5 -5 -1 -11 9 -6 10 -23 23 -37 29 -17 6 -22 12 -14 15
18 7 82 -28 82 -44 0 -6 10 -19 22 -27 12 -9 18 -16 13 -16 -5 0 -2 -6 6 -12
27 -23 121 -137 123 -150 3 -24 24 -53 32 -45 4 4 2 24 -4 44 -14 45 -197 263
-236 281 -41 18 -100 15 -120 -7z m54 -30 c0 -5 -16 -15 -35 -21 -19 -6 -35
-16 -35 -22 0 -6 -9 -8 -20 -5 -11 3 -20 1 -20 -4 0 -5 -8 -9 -18 -9 -10 0
-28 -9 -40 -20 -18 -17 -22 -32 -22 -76 0 -30 -4 -64 -10 -74 -7 -13 -6 -21 5
-30 12 -10 12 -15 1 -33 -8 -12 -12 -33 -10 -45 3 -16 0 -22 -8 -19 -8 2 -13
23 -13 55 0 29 -3 52 -7 52 -4 0 0 13 9 28 11 19 14 35 8 48 -4 10 -7 23 -6
27 1 4 2 19 3 32 1 14 8 25 16 25 7 0 11 3 9 8 -3 4 1 13 9 20 8 7 14 10 14 6
0 -4 8 0 18 9 9 8 34 19 55 22 21 4 41 14 44 21 6 15 53 19 53 5z m93 -96 c40
-50 45 -61 30 -63 -72 -13 -196 -48 -235 -68 -55 -28 -77 -31 -58 -9 6 8 11
36 10 62 -2 26 -2 54 -1 61 1 13 33 28 75 36 33 6 66 25 66 37 0 6 14 9 32 7
26 -2 42 -15 81 -63z m471 -35 c57 -9 106 -39 106 -64 0 -6 11 -32 24 -58 13
-27 21 -48 19 -48 -3 0 -17 8 -31 19 -41 28 -158 80 -210 93 -26 6 -49 12 -51
14 -2 2 4 15 13 29 18 28 38 30 130 15z m-349 -115 c15 -25 25 -50 23 -57 -2
-6 -24 -12 -49 -13 -85 -4 -188 -36 -276 -85 -56 -32 -68 -36 -58 -20 3 5 -3
31 -15 57 l-21 47 23 18 c20 15 126 56 153 59 6 1 18 5 28 11 15 8 79 19 154
27 7 0 24 -19 38 -44z m280 0 c17 -7 41 -16 55 -19 32 -7 190 -104 194 -119 2
-7 9 -30 16 -51 11 -35 11 -41 -6 -53 -25 -18 -33 -14 -60 37 -30 56 -39 64
-61 55 -38 -16 -64 -13 -118 15 -31 16 -69 32 -85 35 -29 6 -30 8 -30 67 l0
60 33 -7 c17 -4 46 -13 62 -20z m283 -59 c12 -24 22 -55 22 -70 0 -15 7 -40
15 -55 8 -16 11 -31 8 -35 -4 -3 -2 -6 3 -6 15 0 16 -62 2 -72 -9 -5 -9 -8 -1
-8 8 0 8 -9 0 -36 -10 -32 -12 -34 -23 -19 -10 13 -10 23 1 48 10 25 10 35 0
51 -7 12 -16 44 -20 71 -5 39 -14 57 -40 82 -25 23 -30 33 -19 37 8 3 14 17
14 31 0 37 14 31 38 -19z m-959 -68 c-3 -28 2 -47 17 -63 15 -15 15 -18 -4
-38 -11 -12 -20 -33 -20 -47 0 -14 -2 -38 -5 -55 -2 -16 1 -38 7 -49 16 -27
66 -76 78 -76 6 0 8 -6 5 -14 -8 -21 69 -49 93 -33 16 9 23 7 44 -16 14 -15
30 -27 36 -27 5 0 10 -6 10 -12 1 -24 38 -58 64 -58 14 0 25 5 24 11 -2 6 8
13 21 15 14 3 29 8 35 13 7 6 18 4 30 -5 10 -7 22 -11 26 -9 4 3 13 -2 20 -10
22 -27 51 -16 106 41 30 31 61 54 68 51 7 -3 20 -21 29 -40 9 -19 35 -46 57
-61 22 -15 38 -31 35 -36 -8 -13 -3 -12 30 0 14 5 24 6 21 1 -3 -5 1 -12 11
-15 25 -10 55 24 51 56 -3 16 -1 28 4 28 9 0 11 -61 2 -84 -3 -9 -14 -16 -24
-16 -22 0 -34 -31 -25 -60 6 -18 3 -20 -18 -15 -18 5 -28 1 -40 -18 -15 -24
-15 -27 4 -51 l20 -26 -23 0 c-44 0 -66 -12 -74 -38 -11 -37 -11 -132 0 -132
5 0 6 -3 3 -7 -4 -3 5 -22 19 -40 26 -34 26 -34 5 -40 -25 -7 -38 -47 -21 -68
7 -8 10 -26 6 -40 -8 -33 3 -77 18 -69 6 3 0 -4 -14 -15 -14 -11 -31 -21 -37
-21 -7 0 -13 -4 -13 -8 0 -11 -67 -35 -107 -38 -26 -2 -33 1 -33 16 0 10 -5
22 -11 26 -6 3 -9 15 -6 25 3 11 2 17 -3 14 -4 -2 -10 9 -13 25 -7 35 -45 49
-84 31 -32 -15 -93 5 -93 30 0 9 -9 28 -20 42 -22 27 -26 52 -10 62 6 4 8 10
5 14 -2 5 12 15 33 23 31 12 39 22 51 62 13 45 12 49 -9 79 -22 31 -22 31 -2
13 22 -19 22 -19 47 8 14 15 25 30 25 35 0 4 15 12 33 19 30 11 33 16 31 45
-1 17 -5 41 -7 52 -3 11 -6 32 -6 46 -1 31 -43 76 -74 81 -49 8 -128 -45 -103
-69 3 -3 -1 -12 -9 -20 -19 -19 -19 -52 0 -59 8 -4 12 -10 9 -15 -3 -5 4 -9
15 -9 12 0 20 3 19 8 -2 4 2 8 7 10 6 2 11 -4 13 -12 4 -21 -24 -49 -39 -40
-8 4 -9 3 -5 -4 4 -7 -4 -14 -21 -18 -15 -4 -35 -13 -44 -21 -15 -13 -22 -9
-60 31 -24 25 -51 47 -59 48 -8 2 -18 8 -23 13 -4 6 -15 1 -26 -13 -13 -14
-22 -18 -26 -12 -4 6 1 20 11 31 18 19 18 21 1 30 -9 6 -17 16 -17 24 0 7 -3
15 -7 18 -5 2 -3 2 4 1 7 -2 15 1 18 6 3 5 -5 12 -19 16 -33 8 -23 30 20 46
18 6 31 14 29 17 -3 2 2 15 10 27 14 22 13 25 -22 59 -20 19 -45 35 -55 35
-11 0 -16 5 -13 10 3 6 -3 10 -15 10 -12 0 -25 10 -32 25 -6 14 -15 25 -19 25
-4 0 -11 9 -14 21 -4 11 -17 25 -29 30 -12 6 -23 20 -23 31 -2 22 -53 72 -90
88 -12 5 -31 7 -42 5 -13 -2 -22 3 -26 14 -3 10 -20 23 -38 29 l-32 11 35 -6
c19 -3 38 -11 42 -17 5 -7 8 -6 8 4 0 13 1 13 10 0 5 -8 10 -10 10 -5 0 6 4 4
9 -3 5 -8 24 -17 42 -21 19 -4 33 -13 31 -19 -1 -7 1 -11 5 -10 5 1 18 -4 31
-11 13 -7 29 -10 37 -8 21 9 42 62 43 111 1 59 0 56 12 56 6 0 10 -6 9 -12z
m421 -43 l0 -55 -32 0 c-54 0 -179 -44 -243 -84 l-59 -38 -38 43 -38 44 32 25
c69 55 247 117 341 119 l37 1 0 -55z m235 4 c49 -21 85 -68 91 -117 4 -33 3
-35 -7 -15 -10 19 -17 21 -54 16 -28 -3 -52 0 -73 11 -17 9 -48 20 -69 25
l-38 8 27 11 c29 12 48 40 48 71 0 22 4 22 75 -10z m-1025 -32 c-17 -4 -30
-11 -30 -15 0 -5 -18 -16 -40 -26 -28 -12 -40 -24 -41 -39 0 -12 -2 -31 -5
-42 -8 -36 -8 -119 0 -150 5 -16 13 -57 19 -90 6 -33 17 -64 24 -68 7 -5 10
-13 7 -19 -5 -7 0 -9 14 -6 21 6 28 -6 23 -35 -1 -5 3 -6 9 -2 15 9 12 -4 -5
-21 -19 -20 -19 -76 0 -142 15 -48 52 -91 65 -74 3 4 10 8 15 8 6 1 31 5 57 8
29 4 49 3 53 -4 20 -33 92 10 82 50 -6 22 27 70 48 70 8 0 19 -8 24 -17 6 -10
11 -12 11 -5 0 6 5 12 12 12 6 0 9 -3 5 -6 -3 -4 0 -13 8 -21 10 -9 15 -35 15
-71 0 -36 6 -66 16 -80 8 -12 13 -26 9 -31 -3 -5 2 -16 10 -24 8 -9 15 -24 15
-35 0 -11 7 -23 16 -26 8 -3 12 -10 9 -16 -3 -5 -1 -10 6 -10 34 0 -6 -11 -57
-17 -41 -4 -63 -11 -72 -24 -13 -19 -42 -15 -42 6 0 21 -50 75 -70 75 -10 0
-22 -6 -28 -13 -15 -17 -11 -118 5 -135 7 -7 10 -25 7 -41 -4 -20 1 -35 20
-58 24 -28 25 -33 11 -46 -18 -18 -20 -31 -3 -21 6 4 8 3 4 -4 -14 -24 82
-182 124 -204 14 -7 34 -21 45 -31 28 -25 50 -29 158 -25 52 2 93 1 91 -2 -10
-9 134 -28 224 -29 94 -1 182 14 182 30 0 5 11 14 25 21 13 6 23 14 20 17 -2
4 10 13 26 20 16 7 27 16 24 20 -2 5 7 13 20 19 14 7 25 17 25 23 0 6 7 9 14
6 9 -4 13 -1 10 6 -3 8 6 13 23 15 19 1 42 17 72 49 42 46 44 47 37 18 -7 -32
-51 -75 -77 -75 -9 0 -26 -9 -39 -20 -13 -11 -26 -20 -29 -20 -3 0 -27 -19
-53 -43 -102 -92 -124 -101 -284 -108 -33 -1 -65 0 -70 4 -26 16 -151 28 -257
25 -89 -2 -117 0 -117 10 0 6 -5 12 -11 12 -5 0 -7 -5 -3 -12 4 -6 -4 -3 -18
8 -14 10 -24 22 -21 26 4 8 -12 12 -30 9 -5 -1 -7 2 -4 6 2 5 -4 16 -15 26
-12 11 -18 13 -18 5 -1 -7 -7 1 -14 17 -7 17 -20 36 -29 44 -9 7 -14 17 -11
22 3 5 0 9 -5 9 -6 0 -11 3 -10 8 3 18 -14 51 -24 45 -6 -3 -7 -1 -3 6 4 7 -6
33 -24 61 -32 50 -32 50 -31 179 1 71 3 138 6 149 5 30 -17 54 -53 56 -17 1
-49 12 -71 26 -51 32 -91 114 -91 187 0 30 -8 64 -21 88 -11 22 -22 54 -24 70
-3 17 -8 48 -12 70 -4 22 -6 43 -5 48 1 4 -2 7 -7 7 -5 0 -11 14 -15 31 -8 43
5 234 15 217 7 -10 9 -9 9 4 0 17 40 47 40 31 0 -4 5 0 11 9 5 10 25 20 44 24
19 3 35 11 35 18 0 6 5 4 10 -4 7 -12 3 -17 -20 -23z m1209 -9 c5 -13 21 -35
35 -50 14 -15 26 -36 26 -48 0 -11 4 -20 9 -20 5 0 11 -10 14 -21 4 -16 11
-20 27 -16 21 5 21 5 5 -13 -11 -12 -16 -29 -13 -45 4 -17 1 -25 -9 -25 -8 0
-11 5 -8 10 3 6 1 10 -5 10 -7 0 -26 11 -42 26 -17 14 -36 23 -42 21 -8 -3
-10 7 -8 29 3 27 1 34 -12 34 -10 0 -14 5 -11 11 4 6 0 9 -8 7 -9 -2 -16 0
-17 4 0 4 -7 26 -15 49 -8 23 -15 43 -15 45 0 1 15 5 33 7 17 2 35 5 40 5 4 1
12 -8 16 -20z m-351 -16 c2 -7 -3 -12 -12 -12 -9 0 -16 7 -16 16 0 17 22 14
28 -4z m-759 -16 c5 -4 -7 -32 -27 -64 -21 -31 -43 -73 -50 -92 -19 -50 -63
-175 -62 -177 0 -2 0 -17 0 -34 0 -49 -17 -25 -23 34 -4 30 -13 72 -21 95 -11
30 -13 62 -8 123 l7 83 33 8 c18 5 36 16 39 24 5 13 16 15 54 11 27 -3 53 -8
58 -11z m721 -17 c0 -5 -4 -9 -10 -9 -5 0 -10 7 -10 16 0 8 5 12 10 9 6 -3 10
-10 10 -16z m515 -43 c-8 -38 -14 -43 -33 -24 -8 8 -6 18 11 38 12 15 23 26
25 25 2 -2 0 -19 -3 -39z m-1127 4 c46 -33 50 -41 27 -60 -8 -7 -15 -17 -15
-22 0 -6 -9 -23 -20 -38 -32 -45 -78 -174 -85 -235 -1 -17 -10 -20 -55 -23
-61 -4 -71 6 -59 52 47 181 55 206 96 269 24 37 43 72 43 77 0 18 27 10 68
-20z m578 4 c-3 -9 -6 -33 -6 -54 0 -37 0 -37 -47 -44 -27 -4 -75 -21 -108
-39 l-60 -32 -37 41 c-36 39 -37 42 -20 56 26 23 117 67 159 77 21 5 58 9 82
10 35 1 42 -2 37 -15z m147 -5 c34 -11 90 -41 124 -65 l62 -44 -44 -41 -44
-41 -38 29 c-21 16 -54 36 -73 43 -34 14 -41 16 -77 23 -10 2 -18 9 -17 15 1
7 2 32 3 57 1 54 10 56 104 24z m163 -30 c3 -5 14 -4 25 1 13 7 19 7 19 0 0
-5 -4 -10 -10 -10 -18 0 -10 -21 17 -46 18 -17 21 -23 8 -18 -14 6 -16 4 -10
-7 5 -8 5 -11 -1 -6 -5 5 -9 14 -9 20 0 7 -10 16 -22 22 -13 5 -23 15 -23 22
0 6 -9 15 -20 18 -11 3 -20 10 -20 15 0 10 38 1 46 -11z m-672 -61 c-11 -17
-25 -7 -40 27 -21 50 -17 54 16 16 16 -19 27 -38 24 -43z m751 32 c-5 -8 -11
-8 -17 -2 -6 6 -7 16 -3 22 5 8 11 8 17 2 6 -6 7 -16 3 -22z m-862 -66 c15
-25 27 -49 27 -53 0 -5 -13 -37 -29 -73 -16 -35 -32 -81 -36 -101 l-7 -37 -55
0 -55 0 7 43 c15 100 87 266 115 266 3 0 17 -20 33 -45z m1057 -31 c0 -8 -6
-13 -12 -11 -7 3 -14 24 -15 49 l-3 44 15 -34 c8 -18 15 -40 15 -48z m-835
-41 c-12 -13 -99 63 -90 78 5 8 22 -3 51 -31 24 -23 42 -45 39 -47z m280 78
c-3 -5 -10 -10 -16 -10 -5 0 -9 5 -9 10 0 6 7 10 16 10 8 0 12 -4 9 -10z m417
-7 c7 -10 26 -25 42 -33 16 -8 36 -26 45 -40 18 -29 32 -40 42 -34 4 2 12 -11
19 -30 13 -39 29 -174 21 -181 -7 -8 -85 -5 -98 3 -14 9 -15 38 -7 123 5 52 4
56 -20 67 -14 6 -26 19 -26 28 0 9 -16 36 -35 60 -19 23 -35 45 -35 48 0 14
40 5 52 -11z m192 -3 c17 -6 26 -6 26 0 0 6 7 10 15 10 8 0 15 -4 15 -10 0 -8
38 -23 62 -25 4 0 16 -9 27 -20 30 -30 51 -46 51 -40 0 3 14 -10 31 -30 25
-29 31 -44 32 -83 0 -30 7 -57 19 -74 11 -16 17 -32 13 -38 -3 -5 1 -37 10
-70 27 -104 13 -181 -33 -179 -11 0 -12 2 -4 6 6 2 10 9 6 14 -3 5 0 9 6 9 14
0 12 140 -3 158 -5 7 -7 15 -4 18 8 9 -13 77 -31 98 -11 13 -12 17 -3 11 10
-6 12 -4 5 6 -4 7 -9 28 -10 46 -2 50 -29 85 -59 77 -20 -5 -25 -2 -25 13 0
23 -33 56 -45 46 -4 -5 -5 -3 -2 3 13 23 -79 50 -110 31 -6 -4 -13 2 -16 13
-6 23 -6 23 27 10z m-486 -46 c23 -14 42 -28 41 -32 0 -4 -20 -24 -44 -44 -41
-37 -43 -38 -78 -25 -20 6 -36 15 -37 20 0 4 0 34 0 66 l0 59 38 -10 c20 -5
56 -21 80 -34z m-162 -1 c-3 -21 -6 -48 -6 -60 0 -17 -6 -23 -22 -23 -12 0
-29 -7 -39 -16 -23 -21 -49 -11 -49 17 0 14 -10 24 -30 32 -16 6 -30 17 -30
24 0 23 89 61 149 62 33 1 34 1 27 -36z m384 7 c9 -16 8 -20 -5 -20 -8 0 -15
-7 -15 -15 0 -18 -29 -65 -40 -65 -4 0 -15 11 -24 25 -16 24 -15 26 21 60 44
40 49 42 63 15z m351 -33 c16 -11 31 -28 34 -36 4 -13 24 -187 25 -213 0 -10
-46 -10 -89 -2 -30 6 -31 8 -31 58 0 28 -7 76 -16 106 -9 30 -18 70 -21 89
l-6 34 38 -7 c21 -4 51 -17 66 -29z m-1031 -63 c0 -6 -15 -19 -34 -29 -35 -19
-66 -61 -66 -89 0 -11 -9 -16 -28 -16 -16 0 -31 3 -34 6 -8 8 17 97 42 149
l22 45 49 -27 c27 -16 49 -33 49 -39z m707 28 c-9 -11 -6 -18 16 -34 33 -24
40 -76 8 -58 -11 5 -28 10 -38 10 -16 0 -53 31 -53 45 0 3 8 5 18 5 12 0 23
13 32 35 9 23 16 31 21 23 4 -7 3 -19 -4 -26z m443 -94 c0 -27 6 -61 14 -76 8
-15 16 -42 19 -59 3 -18 11 -48 17 -69 26 -77 -15 -169 -88 -200 -19 -7 -36
-14 -38 -14 -2 0 5 19 15 43 9 23 24 65 32 92 15 54 19 229 7 309 -7 42 -6 47
7 36 10 -8 15 -30 15 -62z m-810 -27 c16 -13 25 -30 26 -53 1 -18 5 -50 9 -70
7 -36 6 -38 -19 -38 -20 0 -29 -8 -40 -35 -8 -19 -19 -35 -24 -35 -18 0 -21
42 -4 77 17 36 12 57 -22 77 -13 9 -19 7 -28 -8 -8 -15 -12 -16 -19 -5 -14 22
-11 29 11 29 22 0 27 24 9 36 -8 4 1 14 22 25 43 23 48 23 79 0z m-684 -30
c-4 -5 0 -12 6 -14 10 -4 9 -8 -2 -16 -21 -14 -37 4 -20 24 14 16 25 21 16 6z
m274 -25 c0 -17 -25 -27 -46 -19 -13 5 -10 9 12 19 16 7 30 13 32 13 1 1 2 -5
2 -13z m-108 -8 c-9 -9 -15 -9 -24 0 -9 9 -7 12 12 12 19 0 21 -3 12 -12z
m948 -3 c0 -8 -4 -15 -10 -15 -5 0 -10 7 -10 15 0 8 5 15 10 15 6 0 10 -7 10
-15z m-1160 -5 c12 0 16 -10 15 -37 0 -21 3 -57 8 -80 l7 -43 -39 0 c-22 0
-43 -5 -47 -12 -13 -20 -32 52 -33 121 l-1 64 38 -7 c20 -3 44 -6 52 -6z m150
-9 c23 -5 42 -41 23 -41 -15 0 -46 -63 -45 -92 1 -23 -4 -28 -22 -28 -20 0
-24 7 -30 46 -3 26 -6 64 -6 85 0 36 2 39 28 38 15 -1 38 -4 52 -8z m102 -13
c-7 -7 -12 -20 -12 -31 0 -10 -4 -15 -10 -12 -5 3 -10 17 -10 31 0 18 5 24 22
24 17 0 19 -3 10 -12z m98 2 c0 -5 -7 -10 -15 -10 -21 0 -37 -37 -30 -71 8
-37 35 -39 36 -1 1 26 1 26 9 -5 4 -17 19 -52 34 -77 l26 -45 -37 -35 c-21
-20 -40 -36 -43 -36 -3 0 -6 28 -8 62 -2 35 -12 82 -23 107 -25 58 -24 76 7
100 29 23 44 27 44 11z m848 -11 c-2 -6 -8 -10 -13 -10 -5 0 -11 4 -13 10 -2
6 4 11 13 11 9 0 15 -5 13 -11z m149 -14 c0 -8 -4 -15 -9 -15 -4 0 -8 7 -8 15
0 8 4 15 8 15 5 0 9 -7 9 -15z m-191 -32 c4 -27 4 -27 -41 -9 -46 20 -45 38 2
34 29 -2 37 -8 39 -25z m160 0 c-3 -10 -10 -43 -16 -73 -13 -69 -88 -224 -131
-269 l-33 -34 -8 31 c-10 36 -25 49 -41 33 -34 -34 -37 16 -3 56 56 67 101
163 110 233 3 19 5 36 5 38 1 1 28 2 62 2 53 0 60 -2 55 -17z m116 11 l44 -6
-7 -57 c-9 -73 -57 -227 -76 -243 -16 -13 -117 -17 -129 -5 -4 4 7 37 25 73
35 70 71 183 71 221 0 25 5 26 72 17z m-959 -60 l29 -27 -26 -24 c-14 -13 -30
-22 -35 -19 -11 7 -38 63 -47 99 l-7 29 29 -15 c16 -9 42 -28 57 -43z m157 -4
c0 -5 -2 -10 -4 -10 -3 0 -8 5 -11 10 -3 6 -1 10 4 10 6 0 11 -4 11 -10z m514
-7 c-19 -58 -31 -83 -61 -126 -18 -26 -33 -52 -33 -57 0 -6 -4 -10 -10 -10 -5
0 -10 9 -10 20 0 11 -5 20 -11 20 -8 0 -9 11 -5 31 3 19 1 38 -5 46 -19 22 26
63 67 63 18 0 39 7 46 15 18 20 29 19 22 -2z m-497 -80 c9 -19 9 -25 -3 -30
-8 -3 -14 -18 -14 -34 0 -19 -5 -29 -15 -29 -19 0 -94 37 -118 58 -17 15 -15
18 24 58 l41 41 37 -20 c20 -11 42 -31 48 -44z m-103 -118 c14 -9 15 -15 4
-42 -11 -30 -10 -35 17 -63 16 -16 24 -30 17 -30 -30 0 -133 47 -181 84 l-54
40 47 43 48 43 43 -33 c23 -17 50 -36 59 -42z m1054 41 c-7 -14 -40 -39 -73
-57 -33 -17 -62 -34 -65 -38 -10 -13 -60 -30 -60 -21 0 6 5 10 10 10 6 0 10 6
10 13 0 6 9 23 20 37 14 19 22 22 30 14 14 -14 75 13 104 45 26 29 40 26 24
-3z m-1428 -147 c0 -3 -13 -18 -29 -33 l-29 -28 0 67 -1 67 29 -33 c16 -19 29
-37 30 -40z m1077 54 c-12 -11 27 -32 63 -33 19 -1 28 -4 20 -7 -30 -11 -39
-32 -28 -70 13 -47 1 -162 -17 -169 -8 -3 -11 -12 -8 -20 4 -10 0 -12 -11 -8
-18 7 -20 16 -6 30 6 6 5 19 -5 37 -12 24 -12 27 1 27 8 0 13 4 10 9 -3 5 1
11 9 15 17 6 21 61 5 71 -6 4 -8 10 -5 14 2 5 -11 24 -30 44 -32 32 -33 37
-19 51 8 9 18 16 21 16 4 0 3 -3 0 -7z m-212 -27 c8 -7 23 -29 34 -49 l19 -35
-28 -21 c-34 -25 -45 -10 -22 31 15 26 15 29 -6 51 -31 33 -28 54 3 23z m84
-46 c18 -17 25 -40 12 -40 -14 0 -51 63 -43 74 3 6 8 4 10 -4 3 -8 12 -22 21
-30z m-611 -32 c40 -16 53 -20 100 -25 33 -4 42 -9 38 -20 -3 -8 -6 -32 -6
-54 l0 -39 -62 6 c-35 4 -95 20 -134 35 -69 29 -183 110 -192 138 -3 9 0 11 9
6 16 -10 87 -7 108 5 10 5 32 0 64 -16 26 -14 60 -30 75 -36z m723 21 c23 -33
36 -93 21 -103 -5 -3 -28 14 -51 38 l-43 44 23 26 c12 14 24 26 25 26 2 0 12
-14 25 -31z m-998 -33 c69 -77 250 -161 367 -171 40 -3 45 -15 36 -79 l-7 -42
-63 7 c-137 17 -311 99 -419 198 l-27 25 42 43 c23 24 44 43 46 43 1 0 13 -11
25 -24z m535 -53 c2 -17 10 -37 18 -43 25 -22 15 -30 -38 -30 l-53 0 0 50 c0
41 3 50 20 53 39 8 50 2 53 -30z m432 -52 c0 -13 -67 -58 -150 -103 -83 -44
-193 -76 -292 -84 l-78 -7 0 39 c0 77 4 81 83 88 40 3 88 8 107 10 43 4 115
41 195 100 l60 44 38 -39 c20 -21 37 -43 37 -48z m-521 -58 c-15 -18 -34 -1
-25 22 5 14 9 15 21 5 12 -10 13 -16 4 -27z m544 -15 c-20 -39 -39 -58 -68
-73 -45 -22 -108 -68 -141 -101 -57 -59 -98 -76 -201 -81 -62 -3 -115 0 -143
7 -25 7 -108 14 -185 17 -115 4 -144 8 -160 22 -11 10 -34 26 -51 36 -17 10
-39 31 -49 48 -28 47 -75 141 -75 150 0 5 17 -4 38 -20 121 -94 246 -145 399
-164 223 -28 452 37 603 170 25 22 49 40 53 41 5 0 -4 -24 -20 -52z"/>
<path d="M1272 1488 c-17 -17 -15 -48 4 -48 8 0 12 -4 9 -10 -3 -5 3 -10 15
-10 28 0 48 43 30 65 -15 18 -41 20 -58 3z m43 -18 c3 -6 -1 -13 -10 -16 -19
-8 -30 0 -20 15 8 14 22 14 30 1z"/>
<path d="M1457 1220 c-9 -11 -12 -20 -6 -20 6 0 8 -7 5 -16 -3 -8 -2 -13 3
-10 4 3 25 -4 45 -15 40 -21 65 -14 67 20 0 10 2 11 6 4 6 -17 21 -16 40 2 12
12 13 19 3 30 -14 17 -40 20 -40 5 0 -5 7 -10 15 -10 8 0 15 -5 15 -11 0 -6
-6 -8 -12 -5 -7 3 -21 9 -30 12 -10 4 -18 11 -18 16 0 5 -6 5 -17 0 -11 -7
-21 -5 -31 4 -18 19 -24 18 -45 -6z m43 -14 c0 -2 -7 -6 -15 -10 -8 -3 -15 -1
-15 4 0 6 7 10 15 10 8 0 15 -2 15 -4z m50 -21 c0 -8 -7 -15 -15 -15 -16 0
-20 12 -8 23 11 12 23 8 23 -8z"/>
<path d="M437 2387 c-95 -108 -133 -217 -120 -351 3 -39 1 -71 -6 -84 -19 -35
3 -33 32 3 15 19 53 52 85 74 75 51 178 153 224 221 20 30 35 56 33 58 -2 3
-21 -9 -42 -25 -21 -17 -63 -44 -93 -62 -30 -17 -77 -51 -104 -76 -27 -25 -51
-44 -53 -41 -2 2 5 37 17 76 12 40 23 82 26 93 6 36 37 111 56 139 37 54 -2
36 -55 -25z m-23 -95 c-6 -4 -14 -20 -17 -37 -5 -32 -10 -51 -26 -105 -6 -19
-11 -35 -11 -36 0 0 8 -11 19 -23 16 -18 20 -19 31 -6 7 8 18 15 24 15 6 0 19
9 28 20 9 10 36 32 60 47 24 15 46 32 50 38 4 5 8 6 8 1 0 -5 -26 -33 -57 -62
-79 -73 -92 -84 -100 -84 -5 0 -21 -11 -37 -25 -16 -14 -32 -25 -35 -25 -9 0
-2 134 9 193 11 52 36 97 54 97 8 0 8 -2 0 -8z"/>
<path d="M2354 2373 c26 -69 100 -177 166 -241 64 -64 75 -71 78 -53 5 29 -25
106 -60 158 -16 23 -59 64 -96 90 -37 26 -68 51 -70 55 -7 16 -24 7 -18 -9z
m141 -131 c-2 -2 7 -16 21 -30 13 -15 24 -34 24 -42 0 -9 3 -20 8 -26 4 -5 0
-1 -10 8 -9 10 -22 18 -29 18 -7 0 -10 3 -6 6 5 5 -6 21 -38 58 -10 11 -35 62
-35 72 0 3 16 -9 35 -27 19 -18 33 -35 30 -37z"/>
<path d="M2588 2304 c-4 -4 -4 -12 1 -18 22 -27 81 -319 68 -333 -3 -2 -22 18
-43 45 -22 28 -63 67 -92 88 -30 22 -67 54 -83 73 -46 56 -45 28 2 -56 32 -57
74 -108 157 -191 63 -62 117 -111 120 -108 3 3 6 72 6 154 l1 147 -38 71 c-43
80 -88 139 -99 128z m111 -326 c-1 -77 -5 -98 -16 -98 -7 0 -16 7 -19 15 -4 8
-11 15 -18 15 -18 0 -68 59 -60 71 4 8 3 9 -5 5 -6 -4 -19 -2 -27 5 -18 14
-58 69 -51 69 8 0 92 -72 92 -79 0 -3 12 -19 28 -36 l29 -30 19 23 c12 16 17
34 14 55 -2 18 -4 32 -5 32 -1 0 -3 14 -5 30 -2 17 -4 35 -5 40 -7 30 2 36 16
10 11 -21 14 -56 13 -127z"/>
<path d="M269 2222 c-100 -157 -125 -324 -80 -522 5 -25 11 -64 12 -88 4 -60
14 -61 34 -3 10 30 37 73 68 108 29 32 68 81 88 108 40 54 129 212 129 227 0
9 -125 -97 -190 -163 -20 -20 -44 -52 -54 -72 -23 -50 -37 -47 -20 3 9 26 16
99 18 198 4 165 5 174 24 209 21 38 -5 34 -29 -5z m-35 -372 c-11 -39 -11 -55
-3 -79 13 -34 36 -25 66 27 33 56 110 135 118 122 4 -6 1 -10 -5 -10 -6 0 -8
-5 -5 -11 4 -6 -7 -24 -24 -41 -17 -17 -31 -34 -31 -39 0 -5 -13 -23 -30 -41
-16 -18 -45 -51 -65 -73 l-35 -39 0 36 c0 20 -4 39 -9 42 -5 3 -9 49 -10 102
-1 53 -4 101 -7 106 -3 5 -1 14 4 21 5 7 16 39 23 72 l14 60 3 -115 c1 -63 0
-126 -4 -140z"/>
<path d="M2773 2045 c8 -41 7 -82 -3 -153 -7 -53 -13 -134 -13 -179 0 -46 -2
-83 -6 -83 -3 0 -14 19 -24 43 -21 51 -189 256 -195 238 -2 -7 1 -18 7 -24 6
-6 11 -17 11 -24 0 -25 84 -199 136 -282 29 -46 56 -96 59 -112 12 -52 16 -44
83 136 21 58 25 89 26 175 1 61 -5 126 -13 155 -17 62 -61 165 -71 165 -3 0
-2 -25 3 -55z m54 -260 c1 -70 -4 -107 -24 -165 -29 -90 -39 -102 -58 -75 -8
11 -19 25 -24 32 -14 15 -101 180 -101 190 0 13 59 -61 60 -75 0 -7 4 -11 8
-8 5 3 14 -10 20 -28 13 -35 45 -52 60 -32 5 6 12 58 16 116 4 58 9 114 11
125 2 11 4 29 5 40 1 18 2 17 14 -5 8 -15 13 -62 13 -115z"/>
<path d="M65 1858 c-27 -156 12 -335 101 -465 14 -21 35 -59 46 -85 24 -56 38
-61 38 -15 0 19 17 69 39 113 58 118 78 165 89 209 13 49 26 165 19 165 -8 0
-102 -151 -126 -204 -13 -28 -28 -71 -34 -98 -7 -26 -15 -48 -18 -48 -3 0 -14
37 -23 83 -9 45 -33 127 -52 182 -20 55 -42 124 -47 153 -6 28 -14 52 -18 52
-4 0 -10 -19 -14 -42z m63 -207 c17 -54 32 -108 32 -120 0 -11 3 -21 8 -21 4
0 7 -16 8 -36 1 -45 35 -84 58 -65 8 7 24 44 36 84 12 40 28 79 36 88 8 9 11
19 7 22 -7 8 25 47 39 47 5 0 7 -4 4 -8 -3 -5 -7 -21 -10 -36 -4 -22 -99 -229
-112 -245 -9 -10 -86 98 -78 111 3 4 1 8 -4 8 -10 0 -46 103 -57 160 -9 52
-12 110 -6 110 4 0 21 -44 39 -99z"/>
<path d="M2927 1713 c-2 -4 -7 -24 -11 -43 -3 -19 -30 -78 -58 -130 -50 -91
-88 -185 -103 -258 -9 -44 -25 -31 -25 21 0 47 -26 136 -63 217 -14 30 -31 69
-39 85 -12 28 -13 25 -16 -60 -4 -104 10 -185 45 -270 13 -33 27 -87 31 -120
l7 -60 78 104 c89 119 107 151 135 241 25 82 36 150 34 219 -1 53 -6 70 -15
54z m-37 -222 c-9 -51 -48 -147 -77 -190 l-23 -34 0 31 c0 17 5 34 10 37 6 4
8 11 5 16 -4 5 -2 9 4 9 5 0 9 8 8 19 -1 19 63 151 74 151 3 0 3 -18 -1 -39z
m-226 -34 c2 -14 8 -32 13 -39 4 -7 6 -21 4 -32 -1 -10 1 -16 6 -13 12 7 16
-64 5 -81 -16 -25 -61 165 -45 191 7 12 11 6 17 -26z m72 -227 c11 -9 15 -10
10 -2 -4 6 -2 12 3 12 17 0 13 -24 -7 -41 -18 -15 -20 -14 -30 16 -7 17 -12
40 -11 51 0 18 1 18 9 -1 4 -12 16 -27 26 -35z"/>
<path d="M364 1483 c-3 -15 -12 -50 -19 -78 -30 -115 -39 -208 -27 -292 5 -35
6 -63 2 -63 -3 0 -16 21 -29 48 -13 26 -63 104 -113 175 -49 70 -97 148 -106
175 -22 63 -28 31 -12 -63 29 -171 68 -241 219 -387 l110 -106 -6 62 c-3 39 1
107 12 180 17 112 16 259 -1 339 -9 38 -22 43 -30 10z m17 -189 c-1 -38 -7
-98 -12 -134 -6 -36 -11 -70 -11 -77 -1 -7 -4 -10 -8 -8 -8 5 -5 164 5 238 10
81 29 68 26 -19z m-217 -46 c9 -10 16 -21 16 -25 0 -3 11 -20 23 -37 13 -17
37 -53 53 -81 15 -27 34 -56 42 -64 17 -18 8 -26 -15 -12 -10 6 -13 11 -8 11
6 0 -2 8 -17 18 -29 19 -74 72 -62 72 5 0 -2 7 -14 16 -23 16 -62 91 -67 128
-1 12 -6 30 -10 41 -4 11 4 4 18 -15 14 -19 32 -43 41 -52z m189 -220 c-11
-49 -12 -51 -28 -38 -14 12 -13 16 6 37 28 28 28 28 22 1z"/>
<path d="M2567 1298 c-29 -95 -37 -171 -34 -328 1 -112 -2 -161 -11 -177 -17
-31 -1 -29 28 2 13 14 55 46 94 72 100 68 163 137 202 218 31 65 70 192 62
200 -2 2 -24 -24 -50 -58 -25 -34 -77 -97 -116 -139 -72 -78 -155 -192 -146
-200 2 -3 -4 -12 -14 -21 -18 -16 -19 -16 -17 4 1 11 6 24 12 27 16 10 42 107
47 174 2 31 -2 88 -10 125 -8 37 -14 87 -14 110 0 58 -13 54 -33 -9z m24 -183
c2 -84 -8 -165 -20 -165 -7 0 -15 107 -13 160 2 43 16 100 23 93 4 -4 9 -44
10 -88z m246 20 c0 -8 -4 -15 -9 -15 -4 0 -7 -3 -6 -7 2 -11 -19 -60 -34 -80
-31 -39 -101 -103 -114 -103 -8 0 -13 -3 -11 -7 1 -5 -1 -8 -4 -8 -4 0 -17 -9
-30 -20 -14 -12 -10 -4 9 18 17 21 32 41 32 45 0 5 18 27 40 50 23 23 37 42
33 42 -4 0 6 9 22 20 17 11 26 20 21 20 -6 0 3 14 19 30 34 35 32 34 32 15z"/>
<path d="M438 1038 c3 -137 26 -257 58 -306 30 -45 6 -33 -57 30 -35 35 -106
101 -157 147 -52 46 -110 109 -130 139 -40 60 -51 55 -32 -16 41 -152 134
-289 233 -346 43 -24 257 -100 264 -93 2 3 -1 17 -7 32 -6 15 -12 58 -15 96
-4 73 -33 188 -66 266 -43 101 -83 183 -88 183 -3 0 -5 -60 -3 -132z m63 -56
c38 -86 60 -183 64 -275 2 -48 0 -67 -9 -64 -6 2 -28 10 -48 18 -45 15 -50 29
-10 26 23 -2 27 2 25 23 0 14 -10 50 -21 81 -19 53 -31 120 -36 203 -3 43 13
38 35 -12z m-268 -72 c10 -8 33 -29 50 -46 18 -17 44 -39 59 -48 15 -10 25
-22 22 -27 -3 -5 1 -9 9 -9 15 0 87 -75 87 -91 0 -12 -47 -12 -55 1 -3 6 -15
10 -26 10 -11 0 -18 4 -14 9 3 5 -3 12 -13 15 -20 7 -122 96 -109 96 5 0 1 7
-7 16 -9 8 -16 22 -16 30 0 8 -4 14 -8 14 -5 0 -14 16 -20 36 -11 38 -15 39
41 -6z"/>
<path d="M2432 952 c-67 -114 -117 -224 -132 -292 -21 -99 -41 -160 -51 -160
-6 0 -7 -5 -4 -11 4 -6 14 -8 22 -5 8 4 47 13 87 21 173 36 322 152 404 315
23 47 42 89 42 93 0 5 -32 -20 -70 -56 -39 -36 -111 -93 -160 -127 -50 -33
-118 -86 -152 -116 -60 -52 -88 -68 -72 -41 5 6 21 31 37 55 26 38 88 194 85
211 -2 11 13 125 22 158 15 59 -6 43 -58 -45z m8 -103 c0 -18 -4 -28 -10 -24
-6 4 -10 -8 -10 -28 0 -18 -11 -56 -25 -83 -14 -27 -25 -53 -25 -58 0 -4 -12
-22 -27 -40 l-26 -31 6 50 c4 27 12 54 17 59 6 6 10 17 10 25 0 23 73 170 82
165 4 -3 8 -19 8 -35z m263 -66 c-7 -2 -13 -10 -13 -17 0 -7 -9 -21 -20 -31
-11 -10 -20 -22 -20 -27 0 -17 -125 -118 -146 -118 -8 0 -14 -4 -14 -10 0 -5
-8 -10 -18 -10 -10 0 -22 -3 -26 -7 -3 -4 -16 -8 -28 -10 -18 -3 -19 -1 -7 14
22 27 68 66 101 85 16 9 29 20 28 25 -1 4 7 10 17 13 20 5 56 30 106 72 18 15
37 27 42 27 6 0 4 -3 -2 -6z m-368 -256 c-19 -10 -36 0 -29 18 5 11 10 12 25
2 16 -10 16 -13 4 -20z"/>
<path d="M604 860 c4 -19 9 -45 12 -56 9 -46 47 -161 64 -194 10 -20 39 -55
65 -79 26 -23 45 -45 42 -47 -2 -2 -41 9 -88 25 -46 16 -130 43 -185 61 -56
17 -131 49 -168 70 -36 21 -66 35 -66 30 0 -17 92 -121 148 -166 31 -26 77
-56 102 -67 60 -27 173 -44 235 -35 28 4 80 10 118 14 37 4 67 11 67 15 0 5
-4 9 -10 9 -16 0 -60 53 -87 105 -64 126 -103 182 -206 295 l-50 55 7 -35z
m146 -188 c0 -6 6 -17 13 -24 6 -7 28 -44 47 -83 19 -38 39 -73 44 -77 16 -11
15 -36 -2 -44 -26 -11 -232 -14 -250 -4 -10 5 -32 13 -49 19 -40 12 -163 103
-156 114 3 5 8 5 12 1 7 -10 28 -17 54 -18 9 0 17 -3 17 -7 0 -10 94 -35 148
-38 7 -1 10 -6 6 -13 -5 -7 -2 -9 8 -5 9 3 20 1 25 -4 5 -5 23 -11 39 -13 16
-2 41 -7 56 -11 21 -5 29 -2 38 14 9 19 7 26 -22 55 -40 39 -83 90 -80 94 6 6
-11 52 -19 52 -5 0 -9 11 -9 24 0 14 -4 27 -9 30 -5 3 -7 14 -4 25 4 15 12 11
49 -29 24 -26 44 -52 44 -58z"/>
<path d="M2185 681 c-55 -58 -122 -139 -149 -180 -50 -76 -91 -120 -113 -121
-72 -2 145 -60 242 -65 114 -6 252 54 361 158 78 73 96 104 42 67 -59 -38
-116 -59 -225 -80 -196 -38 -274 -57 -286 -69 -10 -10 1 -12 52 -7 91 9 145
18 151 26 5 7 152 29 159 24 12 -10 -61 -54 -89 -54 -11 0 -20 -5 -20 -11 0
-5 -4 -7 -10 -4 -5 3 -10 2 -10 -3 0 -25 -259 -16 -268 9 -2 5 -10 9 -18 9
-21 0 -17 16 10 37 13 10 26 29 30 41 4 12 12 22 17 22 5 0 9 6 9 14 0 16 29
53 73 94 15 14 27 30 27 36 0 6 12 19 25 29 l24 17 -26 -52 c-15 -29 -32 -60
-39 -68 -7 -8 -14 -19 -15 -25 -1 -5 -24 -30 -51 -54 -26 -25 -48 -51 -48 -58
0 -25 19 -13 90 59 33 33 65 84 108 173 90 183 87 185 -53 36z m275 -235 c0
-2 -7 -7 -16 -10 -8 -3 -12 -2 -9 4 6 10 25 14 25 6z"/>
<path d="M875 365 c-136 -31 -290 -36 -348 -12 -64 28 -38 -3 39 -45 88 -48
184 -70 304 -70 80 -1 120 6 253 41 108 29 173 41 205 39 l47 -4 -40 -17
c-192 -82 -346 -207 -255 -207 10 0 25 8 32 18 45 63 256 192 314 192 63 0
175 -85 286 -219 23 -28 30 -31 48 -21 l21 11 -22 30 c-25 36 -149 137 -217
176 l-47 28 30 3 c36 3 114 -21 246 -77 112 -47 242 -68 348 -55 78 9 59 5
153 33 43 13 83 30 89 37 8 10 3 11 -28 2 -52 -14 -177 -4 -243 20 -71 26
-145 46 -245 67 -97 21 -299 22 -365 2 -47 -14 -52 -13 -180 23 -50 14 -115
22 -195 25 -103 4 -136 1 -230 -20z m333 -20 c7 -7 -2 -15 -24 -20 -11 -2 -50
-11 -89 -20 -38 -9 -77 -19 -85 -24 -8 -4 -23 -7 -32 -5 -10 1 -18 -2 -18 -7
0 -6 -4 -8 -8 -5 -5 3 -58 6 -118 7 -70 1 -116 6 -127 14 -16 12 -16 13 5 19
13 3 39 6 59 6 20 0 39 3 43 7 7 8 16 10 100 23 32 5 60 10 62 13 5 5 226 -2
232 -8z m627 -39 c49 -8 99 -19 110 -25 38 -18 86 -30 99 -25 7 3 20 -2 29
-11 9 -8 31 -18 49 -22 l33 -7 -40 -8 c-48 -9 -244 9 -262 24 -7 6 -13 7 -13
3 0 -4 -6 -3 -12 2 -16 13 -90 38 -101 35 -5 -1 -6 2 -3 7 3 4 -15 14 -39 21
-105 30 -11 33 150 6z"/>
</g>
</svg>
